<svg width="24" height="29" viewBox="0 0 24 29" fill="none" xmlns="http://www.w3.org/2000/svg">
<path d="M11.9407 6.34092C13.0717 6.34092 14.1564 6.71206 14.9561 7.3727C15.7559 8.03334 16.2052 8.92936 16.2052 9.86365C16.2052 10.3263 16.0949 10.7843 15.8806 11.2117C15.6662 11.6391 15.3521 12.0275 14.9561 12.3546C14.5601 12.6817 14.09 12.9412 13.5726 13.1182C13.0552 13.2953 12.5007 13.3864 11.9407 13.3864C10.8096 13.3864 9.72494 13.0152 8.92518 12.3546C8.12543 11.694 7.67614 10.7979 7.67614 9.86365C7.67614 8.92936 8.12543 8.03334 8.92518 7.3727C9.72494 6.71206 10.8096 6.34092 11.9407 6.34092ZM11.9407 0C15.1075 0 18.1447 1.0392 20.384 2.889C22.6233 4.73879 23.8813 7.24765 23.8813 9.86365C23.8813 17.2614 11.9407 28.1819 11.9407 28.1819C11.9407 28.1819 0 17.2614 0 9.86365C0 7.24765 1.25803 4.73879 3.49734 2.889C5.73664 1.0392 8.7738 0 11.9407 0ZM11.9407 2.81819C9.67861 2.81819 7.50922 3.56047 5.90971 4.88175C4.31021 6.20303 3.41162 7.99508 3.41162 9.86365C3.41162 11.2727 3.41162 14.0909 11.9407 23.5459C20.4697 14.0909 20.4697 11.2727 20.4697 9.86365C20.4697 7.99508 19.5711 6.20303 17.9716 4.88175C16.3721 3.56047 14.2027 2.81819 11.9407 2.81819Z" fill="#00463C"/>
</svg>
