<svg width="133" height="29" viewBox="0 0 133 29" fill="none" xmlns="http://www.w3.org/2000/svg">
<path fill-rule="evenodd" clip-rule="evenodd" d="M14.0245 25.5656C20.3985 25.5656 25.5656 20.3985 25.5656 14.0245C25.5656 7.65061 20.3985 2.48351 14.0245 2.48351C7.65061 2.48351 2.48351 7.65061 2.48351 14.0245C2.48351 20.3985 7.65061 25.5656 14.0245 25.5656ZM14.0245 28.0491C21.7701 28.0491 28.0491 21.7701 28.0491 14.0245C28.0491 6.279 21.7701 0 14.0245 0C6.279 0 0 6.279 0 14.0245C0 21.7701 6.279 28.0491 14.0245 28.0491Z" fill="#1B202B"/>
<path d="M15.8321 8.2953H14.5508C12.3542 8.2953 11.2558 9.39361 11.2558 11.0411C11.2558 12.8716 11.9881 13.7868 13.6355 14.8852L14.9169 15.8004L11.2558 21.475H8.32703L11.805 16.3496C9.79144 14.8852 8.69313 13.6038 8.69313 11.2241C8.69313 8.2953 10.7067 6.28174 14.5508 6.28174H18.3949V21.475H15.8321V8.2953Z" fill="#1B202B"/>
<path d="M35.7743 4.56296H40.5844C44.9428 4.56296 47.4408 6.68897 47.4408 10.4095C47.4408 14.5021 44.7567 16.4421 40.5579 16.4421H38.9899V23.0327H35.7743V4.56296ZM40.5844 13.944C42.8167 13.944 44.1721 12.8278 44.1721 10.4095C44.1721 8.09746 42.9496 7.06102 40.6907 7.06102H38.9899V13.944H40.5844ZM59.2674 22.1292C58.3373 22.767 56.8491 23.2985 54.8294 23.2985C50.7899 23.2985 48.5045 21.0396 48.5045 16.3889C48.5045 12.3495 50.3381 9.39964 54.1915 9.39964C57.354 9.39964 59.4003 11.1536 59.4003 15.8043V17.4785H51.7732C51.9061 19.7108 52.7831 20.8004 55.0951 20.8004C56.6365 20.8004 58.2841 20.2157 59.2674 19.5514V22.1292ZM54.1384 11.8977C52.6236 11.8977 51.8529 13.0139 51.7732 15.1399H56.1847V14.8741C56.1847 13.1999 55.7063 11.8977 54.1384 11.8977ZM69.3587 23.0327L64.6815 16.5749V23.0327H61.519V9.66539H64.6815V15.9371L69.1461 9.66539H72.3351L67.8705 15.9371L72.9464 23.0327H69.3587ZM73.0948 20.2955C73.0948 20.2955 73.3606 20.5346 73.8123 20.5346C74.8488 20.5346 75.0348 19.6577 75.1411 16.8141L75.4069 9.66539H84.469V23.0327H81.3065V12.1635H78.0909L77.9049 16.947C77.7455 21.3851 77.0545 23.2985 74.3438 23.2985C73.5997 23.2985 73.0948 23.0327 73.0948 23.0327V20.2955ZM97.1263 13.9174V19.764C97.1263 20.8535 97.1794 21.9431 97.2857 23.0327H94.203C94.0967 22.767 93.9904 22.3152 93.9638 21.9697H93.8309C93.2197 22.6075 92.4225 23.2187 90.5622 23.2187C88.1173 23.2187 86.4696 21.704 86.4696 18.9933C86.4696 16.2826 88.6222 14.6881 93.4589 14.6881H93.9638V13.944C93.9638 12.5089 93.2729 11.9774 91.7581 11.9774C90.137 11.9774 88.2767 12.6684 87.4263 13.3062V10.6752C88.383 10.1172 90.0307 9.45279 92.1301 9.45279C95.4786 9.45279 97.1263 10.6752 97.1263 13.9174ZM93.9638 19.8437V16.947H93.512C90.8014 16.947 89.7118 17.5051 89.7118 19.0199C89.7118 20.1626 90.3762 20.9067 91.7049 20.9067C92.8211 20.9067 93.5652 20.4283 93.9638 19.8437ZM111.07 23.0327V13.0404L107.828 23.0327H105.25L102.353 13.0404V23.0327H99.669V9.66539H104.266L106.871 18.5681L109.768 9.66539H114.099L114.152 23.0327H111.07ZM126.79 13.9174V19.764C126.79 20.8535 126.843 21.9431 126.949 23.0327H123.867C123.76 22.767 123.654 22.3152 123.627 21.9697H123.494C122.883 22.6075 122.086 23.2187 120.226 23.2187C117.781 23.2187 116.133 21.704 116.133 18.9933C116.133 16.2826 118.286 14.6881 123.122 14.6881H123.627V13.944C123.627 12.5089 122.936 11.9774 121.422 11.9774C119.801 11.9774 117.94 12.6684 117.09 13.3062V10.6752C118.047 10.1172 119.694 9.45279 121.794 9.45279C125.142 9.45279 126.79 10.6752 126.79 13.9174ZM123.627 19.8437V16.947H123.176C120.465 16.947 119.375 17.5051 119.375 19.0199C119.375 20.1626 120.04 20.9067 121.368 20.9067C122.485 20.9067 123.229 20.4283 123.627 19.8437Z" fill="#1B202B"/>
</svg>
